HIERARCHY
ROOT Hips
{
	OFFSET 0.000000 83.214638 0.000000
	CHANNELS 6 Xposition Yposition Zposition Xrotation Yrotation Zrotation
	JOINT Pelvis
	{
		OFFSET 0.000000 0.000000 0.000000
		CHANNELS 3 Xrotation Yrotation Zrotation
		JOINT LeftUpLeg
		{
			OFFSET 8.479700 -4.795502 -0.379100
			CHANNELS 3 Xrotation Yrotation Zrotation
			JOINT LeftLeg
			{
				OFFSET 0.024144 -32.555107 0.112900
				CHANNELS 3 Xrotation Yrotation Zrotation
				JOINT LeftFoot
				{
					OFFSET -0.024144 -32.638630 -3.012600
					CHANNELS 3 Xrotation Yrotation Zrotation
					JOINT LeftToeBase
					{
						OFFSET 0.970200 -13.225400 11.864200
						CHANNELS 3 Xrotation Yrotation Zrotation
						End Site
						{
							OFFSET 0.000000 12.319262 0.000000
						}
					}
					JOINT LFootTongue
					{
						OFFSET 1.142400 -1.059800 6.665200
						CHANNELS 3 Xrotation Yrotation Zrotation
						End Site
						{
							OFFSET 0.000000 12.319262 0.000000
						}
					}
				}
				JOINT LeftPantLeg
				{
					OFFSET 0.918482 -16.533964 -2.284700
					CHANNELS 3 Xrotation Yrotation Zrotation
					End Site
					{
						OFFSET 0.350399 24.744368 0.000000
					}
				}
			}
		}
		JOINT RightUpLeg
		{
			OFFSET -8.479700 -4.795502 -0.379100
			CHANNELS 3 Xrotation Yrotation Zrotation
			JOINT RightLeg
			{
				OFFSET -0.023144 -32.555092 0.112900
				CHANNELS 3 Xrotation Yrotation Zrotation
				JOINT RightFoot
				{
					OFFSET 0.023144 -32.638641 -3.012700
					CHANNELS 3 Xrotation Yrotation Zrotation
					JOINT RightToeBase
					{
						OFFSET -0.970200 -13.225400 11.864200
						CHANNELS 3 Xrotation Yrotation Zrotation
						End Site
						{
							OFFSET 0.000000 12.319244 0.000000
						}
					}
					JOINT RFootTongue
					{
						OFFSET -1.142200 -1.059800 6.665200
						CHANNELS 3 Xrotation Yrotation Zrotation
						End Site
						{
							OFFSET 0.000000 12.319243 0.000000
						}
					}
				}
				JOINT RightPantLeg
				{
					OFFSET -0.919482 -16.533978 -2.284800
					CHANNELS 3 Xrotation Yrotation Zrotation
					End Site
					{
						OFFSET -0.350400 24.744419 0.000000
					}
				}
			}
		}
	}
	JOINT Spine
	{
		OFFSET 0.000000 7.722000 1.166200
		CHANNELS 3 Xrotation Yrotation Zrotation
		JOINT Spine1
		{
			OFFSET 0.000000 12.024101 0.248800
			CHANNELS 3 Xrotation Yrotation Zrotation
			JOINT Spine2
			{
				OFFSET 0.000000 11.502998 -0.491200
				CHANNELS 3 Xrotation Yrotation Zrotation
				JOINT Neck
				{
					OFFSET 0.000000 18.430702 -3.123100
					CHANNELS 3 Xrotation Yrotation Zrotation
					JOINT Head
					{
						OFFSET 0.000000 9.051102 1.034000
						CHANNELS 3 Xrotation Yrotation Zrotation
						JOINT HairB
						{
							OFFSET 0.208400 24.786102 24.822300
							CHANNELS 3 Xrotation Yrotation Zrotation
							End Site
							{
								OFFSET 0.000000 32.263779 0.000000
							}
						}
						JOINT HairA
						{
							OFFSET -7.081100 24.428299 23.196600
							CHANNELS 3 Xrotation Yrotation Zrotation
							End Site
							{
								OFFSET 0.000000 32.263779 0.000000
							}
						}
						JOINT Hat
						{
							OFFSET 16.728800 15.048294 -15.439601
							CHANNELS 3 Xrotation Yrotation Zrotation
							End Site
							{
								OFFSET 0.000000 32.263779 0.000000
							}
						}
					}
				}
				JOINT LeftShoulder
				{
					OFFSET 6.197800 13.665199 -4.064700
					CHANNELS 3 Xrotation Yrotation Zrotation
					JOINT LeftArm
					{
						OFFSET 7.778100 -0.187103 -1.709300
						CHANNELS 3 Xrotation Yrotation Zrotation
						JOINT LeftForeArm
						{
							OFFSET 22.049376 0.000000 0.000000
							CHANNELS 3 Xrotation Yrotation Zrotation
							JOINT LeftHand
							{
								OFFSET 23.009392 0.000000 0.000000
								CHANNELS 3 Xrotation Yrotation Zrotation
								JOINT LeftHandThumb1
								{
									OFFSET 3.507191 -2.063065 3.133727
									CHANNELS 3 Xrotation Yrotation Zrotation
									JOINT LeftHandThumb2
									{
										OFFSET 3.101337 -1.790558 1.790558
										CHANNELS 3 Xrotation Yrotation Zrotation
										JOINT LeftHandThumb3
										{
											OFFSET 3.058640 -1.765907 1.765906
											CHANNELS 3 Xrotation Yrotation Zrotation
											End Site
											{
												OFFSET -0.415260 3.926476 -0.049563
											}
										}
									}
								}
								JOINT LeftHandIndex1
								{
									OFFSET 11.334419 -0.901459 3.706815
									CHANNELS 3 Xrotation Yrotation Zrotation
									JOINT LeftHandIndex2
									{
										OFFSET 3.283112 0.000000 0.000000
										CHANNELS 3 Xrotation Yrotation Zrotation
										JOINT LeftHandIndex3
										{
											OFFSET 3.323853 0.000000 0.000000
											CHANNELS 3 Xrotation Yrotation Zrotation
											End Site
											{
												OFFSET -1.135597 3.097809 0.402452
											}
										}
									}
								}
								JOINT LeftHandMiddle1
								{
									OFFSET 11.335861 0.000000 0.000000
									CHANNELS 3 Xrotation Yrotation Zrotation
									JOINT LeftHandMiddle2
									{
										OFFSET 3.410492 0.000000 0.000000
										CHANNELS 3 Xrotation Yrotation Zrotation
										JOINT LeftHandMiddle3
										{
											OFFSET 3.312172 0.000000 0.000000
											CHANNELS 3 Xrotation Yrotation Zrotation
											End Site
											{
												OFFSET -1.150200 3.080154 0.400270
											}
										}
									}
								}
								JOINT LeftHandRing1
								{
									OFFSET 11.514786 -0.013176 -3.003090
									CHANNELS 3 Xrotation Yrotation Zrotation
									JOINT LeftHandRing2
									{
										OFFSET 3.053307 0.000000 0.000000
										CHANNELS 3 Xrotation Yrotation Zrotation
										JOINT LeftHandRing3
										{
											OFFSET 3.295807 0.000000 0.000000
											CHANNELS 3 Xrotation Yrotation Zrotation
											End Site
											{
												OFFSET -1.281006 3.013344 0.375733
											}
										}
									}
								}
								JOINT LeftHandPinky1
								{
									OFFSET 10.518692 -0.960396 -5.730441
									CHANNELS 3 Xrotation Yrotation Zrotation
									JOINT LeftHandPinky2
									{
										OFFSET 2.861649 0.000000 0.000000
										CHANNELS 3 Xrotation Yrotation Zrotation
										JOINT LeftHandPinky3
										{
											OFFSET 2.863380 0.000000 0.000000
											CHANNELS 3 Xrotation Yrotation Zrotation
											End Site
											{
												OFFSET -0.843597 2.711159 0.369971
											}
										}
									}
								}
							}
							JOINT LSleeve
							{
								OFFSET 6.676277 -0.344902 -1.011730
								CHANNELS 3 Xrotation Yrotation Zrotation
								End Site
								{
									OFFSET 0.000000 14.885353 0.000000
								}
							}
						}
					}
				}
				JOINT RightShoulder
				{
					OFFSET -6.197800 13.665199 -4.064700
					CHANNELS 3 Xrotation Yrotation Zrotation
					JOINT RightArm
					{
						OFFSET -7.778100 -0.187103 -1.709300
						CHANNELS 3 Xrotation Yrotation Zrotation
						JOINT RightForeArm
						{
							OFFSET -22.049376 0.000000 0.000000
							CHANNELS 3 Xrotation Yrotation Zrotation
							JOINT RightHand
							{
								OFFSET -23.009392 0.000000 0.000000
								CHANNELS 3 Xrotation Yrotation Zrotation
								JOINT RightHandThumb1
								{
									OFFSET -3.507191 -2.063065 3.133727
									CHANNELS 3 Xrotation Yrotation Zrotation
									JOINT RightHandThumb2
									{
										OFFSET -3.101337 -1.790558 1.790558
										CHANNELS 3 Xrotation Yrotation Zrotation
										JOINT RightHandThumb3
										{
											OFFSET -3.058640 -1.765907 1.765906
											CHANNELS 3 Xrotation Yrotation Zrotation
											End Site
											{
												OFFSET 0.415260 3.926476 -0.049563
											}
										}
									}
								}
								JOINT RightHandIndex1
								{
									OFFSET -11.334419 -0.901459 3.706815
									CHANNELS 3 Xrotation Yrotation Zrotation
									JOINT RightHandIndex2
									{
										OFFSET -3.283112 0.000000 0.000000
										CHANNELS 3 Xrotation Yrotation Zrotation
										JOINT RightHandIndex3
										{
											OFFSET -3.323853 0.000000 0.000000
											CHANNELS 3 Xrotation Yrotation Zrotation
											End Site
											{
												OFFSET 1.135597 3.097809 0.402452
											}
										}
									}
								}
								JOINT RightHandMiddle1
								{
									OFFSET -11.335861 0.000000 0.000000
									CHANNELS 3 Xrotation Yrotation Zrotation
									JOINT RightHandMiddle2
									{
										OFFSET -3.410492 0.000000 0.000000
										CHANNELS 3 Xrotation Yrotation Zrotation
										JOINT RightHandMiddle3
										{
											OFFSET -3.312172 0.000000 0.000000
											CHANNELS 3 Xrotation Yrotation Zrotation
											End Site
											{
												OFFSET 1.150200 3.080154 0.400270
											}
										}
									}
								}
								JOINT RightHandRing1
								{
									OFFSET -11.514786 -0.013176 -3.003090
									CHANNELS 3 Xrotation Yrotation Zrotation
									JOINT RightHandRing2
									{
										OFFSET -3.053307 0.000000 0.000000
										CHANNELS 3 Xrotation Yrotation Zrotation
										JOINT RightHandRing3
										{
											OFFSET -3.295807 0.000000 0.000000
											CHANNELS 3 Xrotation Yrotation Zrotation
											End Site
											{
												OFFSET 1.281006 3.013344 0.375733
											}
										}
									}
								}
								JOINT RightHandPinky1
								{
									OFFSET -10.518692 -0.960396 -5.730441
									CHANNELS 3 Xrotation Yrotation Zrotation
									JOINT RightHandPinky2
									{
										OFFSET -2.861649 0.000000 0.000000
										CHANNELS 3 Xrotation Yrotation Zrotation
										JOINT RightHandPinky3
										{
											OFFSET -2.863380 0.000000 0.000000
											CHANNELS 3 Xrotation Yrotation Zrotation
											End Site
											{
												OFFSET 0.843597 2.711159 0.369971
											}
										}
									}
								}
							}
							JOINT RSleeve
							{
								OFFSET -6.676277 -0.344902 -1.011730
								CHANNELS 3 Xrotation Yrotation Zrotation
								End Site
								{
									OFFSET 0.000000 14.885353 0.000000
								}
							}
						}
					}
				}
				JOINT Backpack
				{
					OFFSET 0.000000 -2.471497 36.677502
					CHANNELS 3 Xrotation Yrotation Zrotation
					End Site
					{
						OFFSET 0.000000 20.427315 0.000000
					}
				}
				JOINT Hood
				{
					OFFSET 0.000000 18.754097 -10.431000
					CHANNELS 3 Xrotation Yrotation Zrotation
					JOINT Hood1
					{
						OFFSET 0.000000 -5.011002 -7.685901
						CHANNELS 3 Xrotation Yrotation Zrotation
						End Site
						{
							OFFSET 0.000000 9.175140 0.000000
						}
					}
				}
				JOINT LHoodieString
				{
					OFFSET 5.250500 16.397697 3.089900
					CHANNELS 3 Xrotation Yrotation Zrotation
					JOINT LHoodieString1
					{
						OFFSET 0.257700 -6.364304 3.694600
						CHANNELS 3 Xrotation Yrotation Zrotation
						JOINT LHoodieString2
						{
							OFFSET 0.000000 -9.643799 2.679100
							CHANNELS 3 Xrotation Yrotation Zrotation
							End Site
							{
								OFFSET 0.000000 10.009018 0.000000
							}
						}
					}
				}
				JOINT RHoodieString
				{
					OFFSET -5.250500 16.397697 3.089900
					CHANNELS 3 Xrotation Yrotation Zrotation
					JOINT RHoodieString1
					{
						OFFSET -0.257700 -6.364304 3.694600
						CHANNELS 3 Xrotation Yrotation Zrotation
						JOINT RHoodieString2
						{
							OFFSET 0.000000 -9.643799 2.679100
							CHANNELS 3 Xrotation Yrotation Zrotation
							End Site
							{
								OFFSET 0.000000 10.009018 0.000000
							}
						}
					}
				}
			}
			JOINT LBackpack_Strap
			{
				OFFSET 15.223200 -7.719803 -6.610900
				CHANNELS 3 Xrotation Yrotation Zrotation
				End Site
				{
					OFFSET 0.000000 16.040596 0.000000
				}
			}
			JOINT RBackpack_Strap
			{
				OFFSET -15.223000 -7.719803 -6.610900
				CHANNELS 3 Xrotation Yrotation Zrotation
				End Site
				{
					OFFSET 0.000000 16.040596 0.000000
				}
			}
		}
	}
	JOINT BoyFacialAnim_Joint
	{
		OFFSET 1.000000 -82.208099 -1.550900
		CHANNELS 3 Xrotation Yrotation Zrotation
		End Site
		{
			OFFSET 0.000000 30.012791 0.000000
		}
	}
}
MOTION
Frames: 4
Frame Time: 0.033333
1.130605 73.732887 -0.586804 14.619327 -60.179963 15.084686 0.000000 0.000000 0.000000 -62.153676 -3.022732 -0.369250 85.076597 -1.805468 0.523449 3.899310 -2.463067 6.901716 0.000001 -0.000001 0.000000 0.000001 -0.000001 -0.000000 0.000002 0.000000 -0.000000 -53.460376 -12.147713 -15.470945 56.854874 -4.638928 3.536175 -9.196018 2.225534 1.256621 -0.000000 -0.000000 -0.000000 -0.000000 -0.000000 -0.000000 -0.000001 -0.000000 0.000000 18.243734 -4.969454 4.825955 7.256705 -7.021114 -2.943173 7.567842 -7.033062 -2.402930 -13.503071 4.058749 3.112003 15.914663 66.965381 -28.873344 -0.000001 0.000000 -0.000000 -0.000001 0.000000 -0.000000 -0.000001 0.000000 -0.000000 1.344512 16.054990 10.660070 -51.506914 -27.618951 -15.109751 1.173051 -10.409747 -0.420666 -40.977416 -0.002827 3.330207 11.895882 3.373131 -20.836962 5.758294 28.906160 11.598574 -0.000001 -0.000000 0.000002 5.494369 6.238259 -67.682892 5.950177 7.312624 -73.753742 -0.000004 -0.000001 -0.000005 2.754597 11.316816 -76.381329 6.578757 9.524381 -73.212074 0.000004 -0.000003 -0.000000 2.482415 23.874185 -68.387078 6.670274 8.510486 -71.686401 0.000001 0.000000 -0.000006 -2.752998 19.481011 -56.530836 9.632833 8.705734 -89.332877 0.000001 0.000001 -0.000000 -0.000000 -0.000002 -0.000000 14.945441 -3.481814 -5.299351 -69.125640 48.862514 29.507923 1.914691 128.912826 -1.402911 -68.707912 -5.160881 2.941333 0.277460 -1.521446 -1.570539 7.169039 -41.689678 -15.773519 0.000001 -0.000001 0.000002 6.412808 -12.738432 14.389547 9.941744 -7.465146 101.743277 -0.000000 0.000000 -0.000002 2.653173 -11.302313 44.730936 9.916087 -9.880731 94.351195 0.000000 0.000000 0.000003 2.140157 -7.454488 61.765025 9.609238 -8.992481 89.388687 -0.000001 -0.000001 0.000005 -4.886651 -23.798134 68.396155 13.518266 -7.949247 112.864921 0.000001 0.000000 -0.000001 -0.000001 -0.000001 0.000001 0.000000 -0.000000 -0.000000 0.000000 -0.000000 -0.000000 0.000000 -0.000000 -0.000000 0.000000 -0.000000 -0.000000 0.000000 -0.000000 -0.000000 -0.000001 0.000000 -0.000000 0.000000 -0.000000 -0.000000 0.000000 -0.000000 -0.000000 -0.000001 0.000000 -0.000000 0.000001 -0.000000 -0.000000 0.000001 -0.000000 -0.000000 0.000000 0.000000 0.000000 
-2.630247 73.528740 -0.661410 15.477019 -61.678268 15.399466 -0.000000 0.000000 -0.000000 -67.536965 -0.773500 -1.878686 80.090573 -2.445818 0.468755 6.765291 -2.358639 5.545711 0.000001 0.000002 0.000000 0.000001 0.000002 -0.000000 -0.000001 -0.000001 0.000001 -51.318401 -13.383569 -13.523852 59.493919 -3.712544 3.634452 -13.927312 2.476140 0.572685 -0.000000 0.000000 -0.000001 -0.000000 0.000000 -0.000001 0.000000 -0.000000 0.000000 15.954513 -4.467411 4.543958 8.387536 -6.115665 -3.022948 8.620948 -6.153941 -2.525336 -13.422681 4.069626 3.050098 16.114636 66.206513 -28.863618 -0.000001 -0.000000 0.000001 -0.000001 -0.000000 0.000001 -0.000001 -0.000000 0.000001 1.332069 16.017376 11.069076 -51.924693 -27.701002 -16.105769 0.898258 -10.423164 -0.485270 -40.568308 -0.229582 3.116813 11.895889 3.373132 -20.836961 5.758293 28.906163 11.598581 0.000001 -0.000001 -0.000000 5.494371 6.238260 -67.682899 5.950179 7.312622 -73.753735 -0.000003 -0.000001 -0.000005 2.754602 11.316816 -76.381329 6.578754 9.524383 -73.212074 0.000004 0.000000 0.000000 2.482418 23.874195 -68.387078 6.670276 8.510483 -71.686401 -0.000000 0.000001 -0.000000 -2.752998 19.481016 -56.530836 9.632831 8.705734 -89.332871 -0.000000 0.000002 0.000004 0.000000 0.000002 -0.000000 14.980756 -3.504729 -5.515002 -68.654924 47.838341 29.074568 2.247454 129.446783 -1.609853 -68.655532 -5.611727 2.777879 0.277461 -1.521447 -1.570536 7.169040 -41.689682 -15.773524 -0.000000 0.000001 -0.000000 6.412813 -12.738434 14.389544 9.941747 -7.465145 101.743277 -0.000001 0.000002 0.000002 2.653174 -11.302315 44.730940 9.916088 -9.880729 94.351202 0.000002 -0.000000 0.000003 2.140159 -7.454489 61.765032 9.609239 -8.992484 89.388694 -0.000000 0.000001 0.000002 -4.886651 -23.798131 68.396155 13.518262 -7.949245 112.864915 -0.000002 -0.000001 0.000000 0.000000 -0.000001 0.000000 -0.000002 -0.000000 0.000001 -0.000002 -0.000000 0.000001 -0.000002 -0.000000 0.000001 -0.000002 -0.000000 0.000001 -0.000002 -0.000000 0.000001 -0.000004 0.000001 -0.000001 -0.000002 -0.000000 0.000001 -0.000002 -0.000000 0.000001 -0.000004 0.000001 -0.000001 -0.000003 0.000001 -0.000000 -0.000003 0.000001 -0.000000 -0.000000 0.000000 -0.000000 
-6.243415 73.163834 -0.746251 16.461741 -63.324009 15.914932 -0.000000 -0.000000 0.000000 -70.008244 0.907800 -2.878791 72.707992 -0.422300 0.373462 8.667502 -5.129136 3.968321 -0.000001 -0.000001 0.000001 -0.000001 -0.000001 0.000000 -0.000001 -0.000003 0.000000 -48.837509 -14.402250 -11.443442 61.495656 -0.602880 3.919013 -18.505547 0.790101 -1.347497 0.000000 -0.000000 0.000000 0.000000 -0.000000 0.000000 -0.000002 -0.000000 -0.000000 14.751622 -4.136231 4.255645 8.976075 -5.178696 -3.053578 9.135883 -5.236359 -2.659350 -13.349377 4.072632 3.042782 16.482484 65.705990 -29.074599 0.000001 -0.000000 0.000000 0.000001 -0.000000 0.000000 0.000001 -0.000000 0.000000 1.361009 15.998089 11.370101 -52.157312 -27.616618 -16.814232 0.503876 -10.507169 -0.577503 -40.053705 -0.444532 2.899867 11.895881 3.373132 -20.836961 5.758292 28.906163 11.598581 -0.000000 -0.000001 -0.000000 5.494370 6.238264 -67.682899 5.950178 7.312619 -73.753735 -0.000002 0.000000 -0.000000 2.754593 11.316816 -76.381322 6.578756 9.524385 -73.212074 0.000001 -0.000001 -0.000000 2.482407 23.874189 -68.387078 6.670276 8.510483 -71.686401 -0.000001 0.000001 -0.000002 -2.753000 19.481013 -56.530836 9.632831 8.705734 -89.332871 0.000001 0.000003 0.000004 0.000000 0.000000 0.000000 15.015665 -3.531079 -5.729082 -68.263363 47.093229 28.785002 2.628146 129.767734 -1.856990 -68.489278 -5.866253 2.776933 0.277458 -1.521445 -1.570539 7.169042 -41.689675 -15.773518 -0.000001 -0.000002 -0.000000 6.412809 -12.738433 14.389547 9.941748 -7.465147 101.743277 -0.000002 -0.000002 0.000002 2.653172 -11.302312 44.730933 9.916088 -9.880729 94.351202 0.000003 0.000001 0.000002 2.140160 -7.454489 61.765032 9.609239 -8.992486 89.388687 -0.000001 0.000001 0.000001 -4.886652 -23.798129 68.396162 13.518264 -7.949243 112.864915 -0.000001 -0.000001 0.000000 -0.000001 -0.000002 -0.000001 -0.000002 0.000000 0.000000 -0.000002 0.000000 0.000000 -0.000002 0.000000 0.000000 -0.000002 0.000000 0.000000 -0.000002 0.000000 0.000001 -0.000000 0.000000 -0.000000 -0.000002 0.000000 0.000000 -0.000002 0.000000 0.000001 -0.000000 0.000000 -0.000000 -0.000001 0.000001 -0.000000 -0.000001 0.000001 -0.000000 -0.000000 -0.000000 0.000000 
-9.831548 72.802841 -0.876748 17.515752 -64.960468 16.705447 -0.000000 -0.000002 0.000000 -68.775763 2.084901 -2.640419 62.029797 -2.202037 -0.210111 3.925986 -6.509794 -2.199756 0.000000 0.000000 -0.000001 0.000000 0.000000 -0.000000 -0.000000 0.000000 -0.000000 -45.820881 -15.159671 -9.359554 62.929197 -0.407616 3.957979 -22.881310 1.863580 -2.414736 -0.000000 -0.000001 0.000000 -0.000000 -0.000001 0.000000 0.000001 -0.000000 -0.000000 14.855349 -3.958461 3.822618 8.926920 -4.300700 -3.029277 9.014625 -4.359226 -2.767947 -13.297086 4.060375 3.080903 16.875410 65.442699 -29.404985 0.000001 -0.000000 0.000000 0.000001 -0.000000 0.000000 0.000001 -0.000000 0.000000 1.439519 15.994257 11.388516 -52.192020 -27.534878 -17.102049 0.047025 -10.664728 -0.685645 -39.496781 -0.642556 2.695867 11.895880 3.373132 -20.836962 5.758288 28.906160 11.598585 -0.000001 -0.000001 0.000002 5.494367 6.238260 -67.682899 5.950175 7.312622 -73.753742 0.000003 0.000003 0.000000 2.754591 11.316815 -76.381322 6.578757 9.524384 -73.212081 -0.000000 -0.000002 0.000003 2.482411 23.874194 -68.387078 6.670275 8.510484 -71.686401 0.000003 -0.000000 -0.000006 -2.753007 19.481014 -56.530836 9.632833 8.705732 -89.332871 -0.000002 -0.000001 0.000001 -0.000000 0.000003 0.000000 15.047634 -3.559024 -5.926913 -67.873994 46.658033 28.521383 3.077597 129.942669 -2.164216 -68.176469 -5.875961 2.828859 0.277460 -1.521446 -1.570536 7.169039 -41.689678 -15.773521 0.000002 -0.000001 -0.000001 6.412809 -12.738433 14.389552 9.941746 -7.465147 101.743277 -0.000002 -0.000004 0.000005 2.653171 -11.302314 44.730940 9.916088 -9.880726 94.351209 0.000002 -0.000002 0.000003 2.140157 -7.454489 61.765032 9.609238 -8.992483 89.388687 -0.000001 0.000000 0.000000 -4.886656 -23.798134 68.396155 13.518263 -7.949242 112.864915 -0.000001 0.000000 -0.000001 -0.000000 0.000002 0.000000 0.000000 -0.000000 -0.000000 0.000000 -0.000000 -0.000000 0.000000 -0.000000 -0.000000 0.000000 -0.000000 -0.000000 0.000000 -0.000000 0.000000 -0.000003 0.000000 -0.000000 0.000000 -0.000000 -0.000000 0.000000 -0.000000 0.000000 -0.000003 0.000000 -0.000000 0.000003 -0.000001 -0.000000 0.000003 -0.000001 -0.000000 -0.000000 -0.000002 0.000000 
